<mxfile host="Electron" modified="2024-05-22T01:22:31.917Z" agent="Mozilla/5.0 (X11; Linux x86_64) AppleWebKit/537.36 (KHTML, like Gecko) draw.io/24.2.5 Chrome/120.0.6099.109 Electron/28.1.0 Safari/537.36" etag="FMRx6cyc8ffy5opmb7Il" version="24.2.5" type="device">
  <diagram name="Page-1" id="DKoUYx5yhXehig3IBjhn">
    <mxGraphModel dx="1434" dy="835" grid="1" gridSize="10" guides="1" tooltips="1" connect="1" arrows="1" fold="1" page="1" pageScale="1" pageWidth="850" pageHeight="1100" math="0" shadow="0">
      <root>
        <mxCell id="0" />
        <mxCell id="1" parent="0" />
        <mxCell id="zmLSb2CisZxSAk0GYwwM-1" value="1" style="rounded=0;whiteSpace=wrap;html=1;shadow=0;strokeColor=#6c8ebf;strokeWidth=1;fontFamily=Ubuntu;fontSize=16;fontStyle=0;fillColor=#dae8fc;" parent="1" vertex="1">
          <mxGeometry x="280" y="320" width="40" height="40" as="geometry" />
        </mxCell>
        <mxCell id="zmLSb2CisZxSAk0GYwwM-9" value="nums" style="text;html=1;align=center;verticalAlign=middle;whiteSpace=wrap;rounded=0;fontFamily=Ubuntu;fontSize=16;fontStyle=0;" parent="1" vertex="1">
          <mxGeometry x="200" y="325" width="60" height="30" as="geometry" />
        </mxCell>
        <mxCell id="zmLSb2CisZxSAk0GYwwM-10" value="1" style="rounded=0;whiteSpace=wrap;html=1;shadow=0;strokeColor=#6c8ebf;strokeWidth=1;fontFamily=Ubuntu;fontSize=16;fontStyle=0;fillColor=#dae8fc;" parent="1" vertex="1">
          <mxGeometry x="320" y="320" width="40" height="40" as="geometry" />
        </mxCell>
        <mxCell id="zmLSb2CisZxSAk0GYwwM-11" value="2" style="rounded=0;whiteSpace=wrap;html=1;shadow=0;strokeColor=#6c8ebf;strokeWidth=1;fontFamily=Ubuntu;fontSize=16;fontStyle=0;fillColor=#dae8fc;" parent="1" vertex="1">
          <mxGeometry x="360" y="320" width="40" height="40" as="geometry" />
        </mxCell>
        <mxCell id="zmLSb2CisZxSAk0GYwwM-12" value="3" style="rounded=0;whiteSpace=wrap;html=1;shadow=0;strokeColor=#6c8ebf;strokeWidth=1;fontFamily=Ubuntu;fontSize=16;fontStyle=0;fillColor=#dae8fc;" parent="1" vertex="1">
          <mxGeometry x="400" y="320" width="40" height="40" as="geometry" />
        </mxCell>
        <mxCell id="zmLSb2CisZxSAk0GYwwM-13" value="5" style="rounded=0;whiteSpace=wrap;html=1;shadow=0;strokeColor=#82b366;strokeWidth=1;fontFamily=Ubuntu;fontSize=16;fontStyle=0;fillColor=#d5e8d4;" parent="1" vertex="1">
          <mxGeometry x="440" y="320" width="40" height="40" as="geometry" />
        </mxCell>
        <mxCell id="zmLSb2CisZxSAk0GYwwM-14" value="8" style="rounded=0;whiteSpace=wrap;html=1;shadow=0;strokeColor=#6c8ebf;strokeWidth=1;fontFamily=Ubuntu;fontSize=16;fontStyle=0;fillColor=#dae8fc;" parent="1" vertex="1">
          <mxGeometry x="480" y="320" width="40" height="40" as="geometry" />
        </mxCell>
        <mxCell id="zmLSb2CisZxSAk0GYwwM-15" value="13" style="rounded=0;whiteSpace=wrap;html=1;shadow=0;strokeColor=#6c8ebf;strokeWidth=1;fontFamily=Ubuntu;fontSize=16;fontStyle=0;fillColor=#dae8fc;" parent="1" vertex="1">
          <mxGeometry x="520" y="320" width="40" height="40" as="geometry" />
        </mxCell>
        <mxCell id="zmLSb2CisZxSAk0GYwwM-16" value="" style="endArrow=classic;html=1;rounded=1;shadow=0;strokeColor=#6c8ebf;strokeWidth=1;fontFamily=Ubuntu;fontSize=14;fontStyle=0;fillColor=#dae8fc;entryX=0.5;entryY=1;entryDx=0;entryDy=0;" parent="1" target="NNkQrhQZuhJjd9NplpK3-1" edge="1" source="zmLSb2CisZxSAk0GYwwM-17">
          <mxGeometry width="50" height="50" relative="1" as="geometry">
            <mxPoint x="300" y="400" as="sourcePoint" />
            <mxPoint x="450" y="400" as="targetPoint" />
          </mxGeometry>
        </mxCell>
        <mxCell id="zmLSb2CisZxSAk0GYwwM-17" value="starts_with(&amp;amp;[1, 1])" style="text;html=1;align=center;verticalAlign=middle;whiteSpace=wrap;rounded=0;fontFamily=Ubuntu;fontSize=16;fontStyle=0;" parent="1" vertex="1">
          <mxGeometry x="237" y="400" width="160" height="30" as="geometry" />
        </mxCell>
        <mxCell id="zmLSb2CisZxSAk0GYwwM-18" value="" style="endArrow=classic;html=1;rounded=1;shadow=0;strokeColor=#6c8ebf;strokeWidth=1;fontFamily=Ubuntu;fontSize=14;fontStyle=0;fillColor=#dae8fc;entryX=0.5;entryY=1;entryDx=0;entryDy=0;exitX=0.5;exitY=0;exitDx=0;exitDy=0;" parent="1" edge="1" target="NNkQrhQZuhJjd9NplpK3-3" source="zmLSb2CisZxSAk0GYwwM-19">
          <mxGeometry width="50" height="50" relative="1" as="geometry">
            <mxPoint x="543" y="410" as="sourcePoint" />
            <mxPoint x="539.5" y="360" as="targetPoint" />
          </mxGeometry>
        </mxCell>
        <mxCell id="zmLSb2CisZxSAk0GYwwM-19" value="ends_with(&amp;amp;[13])" style="text;html=1;align=center;verticalAlign=middle;whiteSpace=wrap;rounded=0;fontFamily=Ubuntu;fontSize=16;fontStyle=0;" parent="1" vertex="1">
          <mxGeometry x="474.5" y="400" width="137" height="30" as="geometry" />
        </mxCell>
        <mxCell id="zmLSb2CisZxSAk0GYwwM-20" value="" style="endArrow=classic;html=1;rounded=1;shadow=0;strokeColor=#6c8ebf;strokeWidth=1;fontFamily=Ubuntu;fontSize=14;fontStyle=0;fillColor=#dae8fc;entryX=0.5;entryY=0;entryDx=0;entryDy=0;exitX=0.5;exitY=1;exitDx=0;exitDy=0;" parent="1" edge="1" target="zmLSb2CisZxSAk0GYwwM-13" source="zmLSb2CisZxSAk0GYwwM-21">
          <mxGeometry width="50" height="50" relative="1" as="geometry">
            <mxPoint x="458.5" y="400" as="sourcePoint" />
            <mxPoint x="458.5" y="360" as="targetPoint" />
          </mxGeometry>
        </mxCell>
        <mxCell id="zmLSb2CisZxSAk0GYwwM-21" value="contains(5)" style="text;html=1;align=center;verticalAlign=middle;whiteSpace=wrap;rounded=0;fontFamily=Ubuntu;fontSize=16;fontStyle=0;" parent="1" vertex="1">
          <mxGeometry x="430" y="250" width="60" height="30" as="geometry" />
        </mxCell>
        <mxCell id="NNkQrhQZuhJjd9NplpK3-1" value="" style="rounded=1;whiteSpace=wrap;html=1;shadow=0;strokeColor=#F72585;strokeWidth=2;fontFamily=Ubuntu;fontSize=16;fontStyle=0;fillColor=none;" vertex="1" parent="1">
          <mxGeometry x="272" y="315" width="90" height="50" as="geometry" />
        </mxCell>
        <mxCell id="NNkQrhQZuhJjd9NplpK3-3" value="" style="rounded=1;whiteSpace=wrap;html=1;shadow=0;strokeColor=#F72585;strokeWidth=2;fontFamily=Ubuntu;fontSize=16;fontStyle=0;fillColor=none;" vertex="1" parent="1">
          <mxGeometry x="518" y="315" width="50" height="50" as="geometry" />
        </mxCell>
      </root>
    </mxGraphModel>
  </diagram>
</mxfile>
